<svg width="33" height="27" viewBox="0 0 33 27" fill="none" xmlns="http://www.w3.org/2000/svg">
<path fill-rule="evenodd" clip-rule="evenodd" d="M7.32773 6.49661C5.08113 8.2146 3.83266 10.4698 3.83266 12.833C3.83266 14.0114 4.13943 15.1463 4.71496 16.2017C4.93417 16.6037 4.99636 17.0183 5.0186 17.299C5.04285 17.6051 5.03076 17.9197 5.00414 18.2139C4.95085 18.8028 4.82372 19.4701 4.67124 20.1274C4.49287 20.8962 4.26431 21.7162 4.03239 22.486C4.91281 22.166 5.87508 21.8381 6.78733 21.5719C7.52461 21.3568 8.26918 21.1702 8.93185 21.0654C9.5027 20.9751 10.3311 20.8864 11.0443 21.1332C12.6448 21.6869 14.4353 21.9997 16.3327 21.9997C19.9113 21.9997 23.0895 20.8886 25.3376 19.1694C27.5842 17.4514 28.8327 15.1962 28.8327 12.833C28.8327 10.4698 27.5842 8.2146 25.3376 6.49661C23.0895 4.77745 19.9113 3.66634 16.3327 3.66634C12.754 3.66634 9.57586 4.77745 7.32773 6.49661ZM5.30289 3.84875C8.18209 1.64702 12.0872 0.333008 16.3327 0.333008C20.5781 0.333008 24.4832 1.64702 27.3624 3.84875C30.2431 6.05167 32.166 9.21311 32.166 12.833C32.166 16.4529 30.2431 19.6143 27.3624 21.8173C24.4832 24.019 20.5781 25.333 16.3327 25.333C14.0942 25.333 11.9561 24.9681 10.0148 24.3041C10.0128 24.3095 9.85537 24.2941 9.45245 24.3578C8.98803 24.4313 8.39522 24.5751 7.72089 24.7719C6.37845 25.1635 4.87087 25.7176 3.72255 26.1645C1.73317 26.9387 -0.293418 25.0281 0.376849 22.9929C0.732099 21.9142 1.15108 20.5511 1.42414 19.3741C1.5617 18.7812 1.65096 18.2827 1.68437 17.9135C1.69596 17.7853 1.69896 17.6919 1.69829 17.6288C0.931153 16.1629 0.499324 14.5417 0.499324 12.833C0.499324 9.21311 2.42216 6.05167 5.30289 3.84875ZM1.6928 17.5379C1.69296 17.5377 1.69377 17.5422 1.69475 17.5518C1.69313 17.5429 1.69264 17.5381 1.6928 17.5379Z" fill="#FF5A30"/>
</svg>
